# xmcd
#
# Track frame offsets:
#	150
#	18810
#	37340
#	58252
#	77117
#	92085
#	107590
#	126607
#	149117
#	166562
#	186192
#	202695
#
# Disc length: 2909 seconds
#
# Revision: 0
# Processed by: cddbd v1.5.2PL0 Copyright (c) Steve Scherf et al.
# Submitted via: EasyCDDAExtractor 2010.4.0.0
#
DISCID=a60b5b0c
DTITLE=Claudia Garcia - Once Horas
DYEAR=1900
DGENRE=
TTITLE0=Muro De Lamentos
TTITLE1=Tratame Bien
TTITLE2=Once Horas
TTITLE3=Cerca De Ti
TTITLE4=Uno Y Dos
TTITLE5=Besame
TTITLE6=Soñar
TTITLE7=En Busca De Tu Amor
TTITLE8=El Corazon Nunca Pide Perdon
TTITLE9=Tu
TTITLE10=Para Quererte
TTITLE11=Ave Maria
EXTD=
EXTT0=
EXTT1=
EXTT2=
EXTT3=
EXTT4=
EXTT5=
EXTT6=
EXTT7=
EXTT8=
EXTT9=
EXTT10=
EXTT11=
PLAYORDER=
